HIERARCHY
ROOT reference
{
  OFFSET 0 0 0
  CHANNELS 6 Xposition Yposition Zposition Zrotation Xrotation Yrotation
  JOINT Hips
  {
    OFFSET 19.7669 81.9121 63.654
    CHANNELS 6 Xposition Yposition Zposition Zrotation Xrotation Yrotation
    JOINT Spine
    {
      OFFSET 0 7.3847 0
      CHANNELS 6 Xposition Yposition Zposition Zrotation Xrotation Yrotation
      JOINT Spine1
      {
        OFFSET 0 22.52 0
        CHANNELS 6 Xposition Yposition Zposition Zrotation Xrotation Yrotation
        JOINT Neck
        {
          OFFSET 0 22.4276 2.03887
          CHANNELS 6 Xposition Yposition Zposition Zrotation Xrotation Yrotation
          JOINT Head
          {
            OFFSET 0 12.608 -1.80115
            CHANNELS 6 Xposition Yposition Zposition Zrotation Xrotation Yrotation
            End Site
            {
              OFFSET 0 22.5143 0
            }
          }
        }
        JOINT LeftShoulder
        {
          OFFSET 3.70204 19.5563 -0.329131
          CHANNELS 6 Xposition Yposition Zposition Zrotation Xrotation Yrotation
          JOINT LeftArm
          {
            OFFSET 13.7086 0 0
            CHANNELS 6 Xposition Yposition Zposition Zrotation Xrotation Yrotation
            JOINT LeftForeArm
            {
              OFFSET 25.9307 0 0
              CHANNELS 6 Xposition Yposition Zposition Zrotation Xrotation Yrotation
              JOINT LeftHand
              {
                OFFSET 23.5097 0 0
                CHANNELS 6 Xposition Yposition Zposition Zrotation Xrotation Yrotation
                End Site
                {
                  OFFSET 13.5086 0 0
                }
              }
            }
          }
        }
        JOINT RightShoulder
        {
          OFFSET -3.48695 19.5563 -0.329131
          CHANNELS 6 Xposition Yposition Zposition Zrotation Xrotation Yrotation
          JOINT RightArm
          {
            OFFSET -13.7086 0 0
            CHANNELS 6 Xposition Yposition Zposition Zrotation Xrotation Yrotation
            JOINT RightForeArm
            {
              OFFSET -25.9307 0 0
              CHANNELS 6 Xposition Yposition Zposition Zrotation Xrotation Yrotation
              JOINT RightHand
              {
                OFFSET -23.5097 0 0
                CHANNELS 6 Xposition Yposition Zposition Zrotation Xrotation Yrotation
                End Site
                {
                  OFFSET -13.5086 0 0
                }
              }
            }
          }
        }
      }
    }
    JOINT LeftUpLeg
    {
      OFFSET 9.00574 0 0
      CHANNELS 6 Xposition Yposition Zposition Zrotation Xrotation Yrotation
      JOINT LeftLeg
      {
        OFFSET 0 -37.3387 0
        CHANNELS 6 Xposition Yposition Zposition Zrotation Xrotation Yrotation
        JOINT LeftFoot
        {
          OFFSET 0 -36.155 0
          CHANNELS 6 Xposition Yposition Zposition Zrotation Xrotation Yrotation
          JOINT LeftToeBase
          {
            OFFSET 0 -5.85373 13.5086
            CHANNELS 6 Xposition Yposition Zposition Zrotation Xrotation Yrotation
            End Site
            {
              OFFSET 0 0 3.60229
            }
          }
        }
      }
    }
    JOINT RightUpLeg
    {
      OFFSET -9.00574 0 0
      CHANNELS 6 Xposition Yposition Zposition Zrotation Xrotation Yrotation
      JOINT RightLeg
      {
        OFFSET 0 -37.3387 0
        CHANNELS 6 Xposition Yposition Zposition Zrotation Xrotation Yrotation
        JOINT RightFoot
        {
          OFFSET 0 -36.155 0
          CHANNELS 6 Xposition Yposition Zposition Zrotation Xrotation Yrotation
          JOINT RightToeBase
          {
            OFFSET 0 -5.85373 13.5086
            CHANNELS 6 Xposition Yposition Zposition Zrotation Xrotation Yrotation
            End Site
            {
              OFFSET 0 0 3.60229
            }
          }
        }
      }
    }
  }
}
MOTION
Frames:	5
Frame Time:	0.004
0 0 0 0 0 -0 16.3584 78.6555 -121.904 -3.06313 4.13835 -8.77374 0 7.3847 -1.42109e-014 -1.23573 -5.06134 -3.28451 -1.77636e-015 22.52 0 -0.566743 20.978 -3.12492 0 22.4276 2.03887 -0.635644 25.6542 5.347 1.77636e-015 12.608 -1.80115 -9.59821 23.7836 6.19105 3.70204 19.5563 -0.329131 -2.60246 0.113604 -17.3792 13.7086 0 0 -42.143 46.6151 -38.9996 25.9307 0 -3.55271e-015 7.68368 -3.84013 -7.93306 23.5097 1.42109e-014 -3.55271e-015 0.651935 -3.36593 -10.2008 -3.48695 19.5563 -0.329131 3.47816 13.6003 4.53011 -13.7086 0 0 43.3443 46.4339 36.3827 -25.9307 0 0 3.27349 -1.43948 12.985 -23.5097 0 0 -12.6961 -2.53599 6.50481 9.00574 -1.42109e-014 -1.42109e-014 -0.079355 -7.24494 5.92017 3.55271e-015 -37.3387 0 -2.17564 10.3505 10.8663 -7.10543e-015 -36.155 0 5.94443 -5.3112 -2.6804 0 -5.85373 13.5086 -2.20695e-032 -7.95139e-016 -1.59028e-015 -9.00574 1.42109e-014 -1.42109e-014 -4.20738 -21.396 -2.53177 -3.55271e-015 -37.3387 -1.42109e-014 11.2536 50.5479 -6.92448 3.55271e-015 -36.155 0 4.94843 -5.71632 -13.2875 -7.10543e-015 -5.85373 13.5086 -1.59028e-015 6.36111e-015 -3.18055e-015 
0 0 0 0 0 -0 16.3688 78.6629 -121.71 -3.08008 4.12295 -8.57932 -1.77636e-015 7.3847 0 -1.22074 -5.03943 -3.28473 0 22.52 0 -0.517143 20.9833 -3.1352 0 22.4276 2.03887 -0.658383 25.6776 5.28859 0 12.608 -1.80115 -9.41276 23.8213 6.11806 3.70204 19.5563 -0.329131 -2.59357 0.092867 -17.3849 13.7086 -1.42109e-014 0 -42.1913 46.511 -39.0615 25.9307 0 0 7.71153 -3.87795 -8.03077 23.5097 -1.42109e-014 3.55271e-015 0.588306 -3.38983 -10.2513 -3.48695 19.5563 -0.329131 3.49616 13.5443 4.56164 -13.7086 7.10543e-015 0 43.2435 46.405 36.4704 -25.9307 0 0 3.23656 -1.32445 13.0868 -23.5097 0 0 -12.337 -2.40187 6.53016 9.00574 0 0 -0.103481 -7.109 5.72872 0 -37.3387 0 -2.19913 10.3628 10.7289 0 -36.155 1.42109e-014 6.01574 -5.33958 -2.55369 0 -5.85373 13.5086 4.96962e-017 -7.95139e-016 -0 -9.00574 -1.42109e-014 0 -4.11004 -21.6381 -2.53435 0 -37.3387 0 11.1034 50.0464 -6.8541 -3.55271e-015 -36.155 0 4.7672 -5.59668 -13.5066 0 -5.85373 13.5086 1.59028e-015 0 -9.54166e-015 
0 0 0 0 0 -0 16.3773 78.6711 -121.524 -3.10877 4.08644 -8.36671 -3.55271e-015 7.3847 1.42109e-014 -1.15968 -5.01214 -3.28533 5.32907e-015 22.52 0 -0.550393 21.0197 -3.1324 0 22.4276 2.03887 -0.579352 25.6805 5.20782 5.32907e-015 12.608 -1.80115 -9.30008 23.8876 6.03882 3.70204 19.5563 -0.329131 -2.53622 0.110094 -17.4312 13.7086 -2.84217e-014 2.84217e-014 -42.2152 46.3393 -39.1403 25.9307 0 -7.10543e-015 7.9543 -3.57699 -8.09978 23.5097 0 1.77636e-015 -0.208834 -2.99551 -10.1928 -3.48695 19.5563 -0.329131 3.54132 13.5714 4.58286 -13.7086 -2.13163e-014 0 43.023 46.4265 36.7261 -25.9307 0 0 3.17869 -1.31578 13.1462 -23.5097 0 0 -12.5367 -2.40713 6.59701 9.00574 0 1.42109e-014 -0.112221 -6.98597 5.67597 1.77636e-015 -37.3387 0 -2.1951 10.4267 10.5846 -7.10543e-015 -36.155 0 5.90984 -5.35961 -2.54384 0 -5.85373 13.5086 9.93923e-017 3.97569e-016 1.59028e-015 -9.00574 0 0 -4.03661 -21.8421 -2.61451 0 -37.3387 -1.42109e-014 11.0247 49.631 -6.22003 0 -36.155 0 5.0366 -5.81482 -14.1748 0 -5.85373 13.5086 1.59028e-015 0 -6.36111e-015 
0 0 0 0 0 -0 16.3966 78.6748 -121.333 -3.11657 4.07864 -8.15061 -3.55271e-015 7.3847 0 -1.16865 -4.99741 -3.30158 3.55271e-015 22.52 -1.42109e-014 -0.445211 21.0285 -3.16789 -3.55271e-015 22.4276 2.03887 -0.618619 25.7215 5.14905 1.77636e-015 12.608 -1.80115 -9.15322 23.9054 5.96459 3.70204 19.5563 -0.329131 -2.61258 0.082601 -17.4505 13.7086 0 0 -42.2149 46.3356 -39.1841 25.9307 0 -3.55271e-015 8.05483 -3.64346 -8.20239 23.5097 1.42109e-014 3.55271e-015 -0.116128 -3.0559 -10.1822 -3.48695 19.5563 -0.329131 3.56416 13.3947 4.66418 -13.7086 1.42109e-014 0 43.049 46.2882 36.7102 -25.9307 0 2.84217e-014 3.36619 -1.21175 13.0252 -23.5097 1.42109e-014 -1.42109e-014 -12.5956 -2.35145 6.83982 9.00574 -1.42109e-014 0 -0.150986 -6.88048 5.61129 -1.77636e-015 -37.3387 0 -2.18361 10.4669 10.455 0 -36.155 0 5.94341 -5.46765 -2.584 0 -5.85373 13.5086 -4.96962e-017 7.95139e-016 7.95139e-016 -9.00574 0 -1.42109e-014 -3.9753 -22.057 -2.49347 0 -37.3387 1.42109e-014 11.0726 48.9969 -6.74243 0 -36.155 0 4.87545 -5.6876 -13.9078 0 -5.85373 13.5086 5.29669e-031 -3.18055e-015 9.54166e-015 
0 0 0 0 0 -0 16.4088 78.6767 -121.133 -3.13202 4.02862 -7.93235 -1.77636e-015 7.3847 0 -1.14572 -4.99327 -3.30334 -1.77636e-015 22.52 0 -0.42735 21.1158 -3.17367 0 22.4276 2.03887 -0.497767 25.7588 5.05244 0 12.608 -1.80115 -9.12438 23.897 5.87189 3.70204 19.5563 -0.329131 -2.57854 0.028732 -17.4845 13.7086 1.42109e-014 0 -42.2488 46.3207 -39.2653 25.9307 0 0 8.16509 -3.66384 -8.26093 23.5097 7.10543e-015 3.55271e-015 -0.204953 -3.05626 -10.1882 -3.48695 19.5563 -0.329131 3.64554 13.4988 4.66899 -13.7086 -1.42109e-014 0 42.6381 46.1902 37.0823 -25.9307 -1.42109e-014 0 3.33259 -1.21872 13.0487 -23.5097 -1.42109e-014 0 -12.4812 -2.37187 7.054 9.00574 1.42109e-014 0 -0.18066 -6.7242 5.57078 -1.77636e-015 -37.3387 1.42109e-014 -2.1627 10.4629 10.7365 0 -36.155 0 5.99431 -5.44725 -3.20973 3.55271e-015 -5.85373 13.5086 4.96962e-017 3.97569e-016 7.95139e-016 -9.00574 0 0 -3.91048 -22.2117 -2.4895 0 -37.3387 -1.42109e-014 10.9782 48.4294 -6.65873 0 -36.155 0 4.78769 -5.76757 -13.9604 7.10543e-015 -5.85373 13.5086 4.77083e-015 3.18055e-015 3.18055e-015 
